<svg width="26" height="26" viewBox="0 0 26 26" fill="none" xmlns="http://www.w3.org/2000/svg">
<path d="M9.32015 11.2234C8.53293 10.4362 7.2582 10.4362 6.46737 11.2234C5.68015 12.0106 5.68015 13.2853 6.46737 14.0762L10.4938 18.1025C10.8693 18.4781 11.3785 18.6875 11.9093 18.6875H11.9382C12.4943 18.6695 13.0179 18.4203 13.3863 18.005L22.7968 7.25115C23.4938 6.3881 23.3565 5.1206 22.4935 4.42365C21.6701 3.76282 20.4749 3.84949 19.7563 4.62227L11.8768 13.7403L9.31654 11.227L9.32015 11.2234Z" fill="#F9BB15"/>
<path d="M24.1475 11.1439C23.1219 11.1439 22.295 11.9745 22.2914 13.0001C22.2914 18.1278 18.1314 22.2842 13.0036 22.2842C7.87583 22.2842 3.71944 18.1242 3.71944 12.9964C3.71944 7.87228 7.87222 3.71589 13 3.71227C13.7331 3.71589 14.4589 3.79894 15.1739 3.95783C16.1525 4.26116 17.1925 3.71227 17.4958 2.73366C17.7992 1.75505 17.2503 0.715053 16.2717 0.411719C16.2103 0.393664 16.1453 0.375608 16.0839 0.364775C15.0728 0.130053 14.04 0.0072749 13.0036 0.00366379C5.82111 5.26777e-05 0 5.82116 0 13.0001C0 20.1789 5.82111 26.0001 13 26.0001C20.1753 25.9928 25.9928 20.1753 26 13.0001C26 11.9745 25.1694 11.1439 24.1475 11.1439Z" fill="#F9BB15"/>
</svg>
